<svg width="40" height="40" viewBox="0 0 40 40" fill="none" xmlns="http://www.w3.org/2000/svg">
<rect width="40" height="40" rx="20" fill="#FE5A7D"/>
<g clip-path="url(#clip0_459_848)">
<path d="M23.3792 27.5998C23.2311 27.6007 23.0843 27.5718 22.9472 27.5146C22.81 27.4575 22.6853 27.3734 22.5802 27.267L15.8273 20.3806C15.6177 20.1655 15.5 19.8746 15.5 19.5714C15.5 19.2682 15.6177 18.9773 15.8273 18.7623L22.5802 11.8758C22.7955 11.6878 23.0724 11.5896 23.3557 11.6007C23.6389 11.6119 23.9076 11.7316 24.1081 11.936C24.3085 12.1404 24.4259 12.4144 24.4369 12.7033C24.4478 12.9921 24.3515 13.2746 24.1671 13.4941L18.2133 19.5657L24.1671 25.6372C24.3251 25.7971 24.4331 26.0011 24.4775 26.2235C24.5218 26.446 24.5004 26.6768 24.4161 26.8869C24.3318 27.097 24.1883 27.2768 24.0037 27.4037C23.8191 27.5306 23.6018 27.5989 23.3792 27.5998Z" fill="white"/>
</g>
<defs>
<clipPath id="clip0_459_848">
<rect width="16" height="16" fill="white" transform="translate(12 12)"/>
</clipPath>
</defs>
</svg>
