<svg width="40" height="40" viewBox="0 0 40 40" fill="none" xmlns="http://www.w3.org/2000/svg">
<rect width="40" height="40" rx="20" fill="#CB4864"/>
<path d="M25.126 20.2701C25.126 19.9582 24.8732 19.7053 24.5613 19.7053C24.2493 19.7053 23.9965 19.9582 23.9965 20.2701C23.9961 22.4774 22.2065 24.2665 19.9992 24.2662C17.7923 24.2659 16.0034 22.4769 16.0031 20.2701C16.0031 19.9582 15.7502 19.7053 15.4383 19.7053C15.1264 19.7053 14.8735 19.9582 14.8735 20.2701C14.8765 22.8814 16.8399 25.0741 19.435 25.3643V26.8704H17.3811C17.0692 26.8704 16.8164 27.1233 16.8164 27.4352C16.8164 27.7471 17.0692 27.9999 17.3811 27.9999H22.6185C22.9304 27.9999 23.1832 27.7471 23.1832 27.4352C23.1832 27.1233 22.9304 26.8704 22.6185 26.8704H20.5646V25.3643C23.1597 25.0741 25.123 22.8814 25.126 20.2701Z" fill="white"/>
<path d="M20.0001 12C18.2607 12 16.8506 13.4101 16.8506 15.1496V20.2495C16.8526 21.988 18.2616 23.3969 20.0001 23.399C21.7387 23.397 23.1476 21.988 23.1497 20.2495V15.1496C23.1497 13.4101 21.7396 12 20.0001 12Z" fill="white"/>
</svg>
