<svg width="40" height="40" viewBox="0 0 40 40" fill="none" xmlns="http://www.w3.org/2000/svg">
<rect width="40" height="40" rx="20" fill="#FE5A7D"/>
<path d="M27.6864 12.1762C27.5287 12.0393 27.3192 11.9778 27.1124 12.0072L17.0258 13.4481C16.6708 13.4989 16.4072 13.8029 16.4072 14.1614V17.0433V22.6086C15.9804 22.36 15.485 22.2168 14.9565 22.2168C13.3621 22.2168 12.0649 23.514 12.0649 25.1084C12.0649 26.7028 13.3621 28 14.9565 28C16.5509 28 17.8481 26.7028 17.8481 25.1084V17.6682L26.4938 16.4331V21.1676C26.0671 20.919 25.5717 20.7758 25.0432 20.7758C23.4488 20.7758 22.1516 22.073 22.1516 23.6674C22.1516 25.2618 23.4488 26.559 25.0432 26.559C26.6376 26.559 27.9348 25.2618 27.9348 23.6674V15.6024V12.7205C27.9348 12.5116 27.8442 12.313 27.6864 12.1762Z" fill="white"/>
</svg>
