<svg width="40" height="40" viewBox="0 0 40 40" fill="none" xmlns="http://www.w3.org/2000/svg">
<rect width="40" height="40" rx="20" fill="#FE5A7D"/>
<path d="M26.9841 13.7778H13.0159C12.4549 13.7778 12 14.2327 12 14.7937V25.2064C12 25.7674 12.4549 26.2222 13.0159 26.2222H26.9841C27.5451 26.2222 28 25.7674 28 25.2064V14.7937C28 14.2327 27.5452 13.7778 26.9841 13.7778ZM26.9841 14.7937V22.1819L24.9821 20.3617C24.6811 20.0882 24.2184 20.0991 23.9309 20.3868L21.9047 22.4127L17.9096 17.6407C17.6076 17.28 17.0545 17.2765 16.7479 17.6328L13.0159 21.9701V14.7937H26.9841ZM22.6667 17.4604C22.6667 16.6888 23.2919 16.0635 24.0634 16.0635C24.835 16.0635 25.4603 16.6888 25.4603 17.4604C25.4603 18.2319 24.8351 18.8572 24.0634 18.8572C23.2919 18.8572 22.6667 18.2319 22.6667 17.4604Z" fill="white"/>
</svg>
