<svg width="411" height="92" viewBox="0 0 411 92" fill="none" xmlns="http://www.w3.org/2000/svg">
<rect x="20" y="26" width="40" height="40" rx="20" fill="#FE5A7D"/>
<g clip-path="url(#clip0_168_708)">
<path d="M43.3792 53.5998C43.2311 53.6007 43.0843 53.5718 42.9472 53.5146C42.81 53.4575 42.6853 53.3734 42.5802 53.267L35.8273 46.3806C35.6177 46.1655 35.5 45.8746 35.5 45.5714C35.5 45.2682 35.6177 44.9773 35.8273 44.7623L42.5802 37.8758C42.7955 37.6878 43.0724 37.5896 43.3557 37.6007C43.6389 37.6119 43.9076 37.7316 44.1081 37.936C44.3085 38.1404 44.4259 38.4144 44.4369 38.7033C44.4478 38.9921 44.3515 39.2746 44.1671 39.4941L38.2133 45.5657L44.1671 51.6372C44.3251 51.7971 44.4331 52.0011 44.4775 52.2235C44.5218 52.446 44.5004 52.6768 44.4161 52.8869C44.3318 53.097 44.1883 53.2768 44.0037 53.4037C43.8191 53.5306 43.6018 53.5989 43.3792 53.5998Z" fill="white"/>
</g>
<rect x="75" y="33" width="249" height="26" rx="10" fill="#FFDCE3"/>
<rect x="75" y="33" width="83" height="26" rx="10" fill="#FF9CB1"/>
<path d="M340.25 54C340.25 53.2373 340.352 52.5553 340.558 51.954C340.778 51.3527 341.064 50.81 341.416 50.326C341.782 49.8273 342.186 49.3653 342.626 48.94C343.066 48.5 343.52 48.06 343.99 47.62C345.016 46.652 345.75 45.772 346.19 44.98C346.63 44.1733 346.85 43.3887 346.85 42.626C346.85 42.1273 346.784 41.6433 346.652 41.174C346.534 40.7047 346.307 40.3233 345.97 40.03C345.632 39.722 345.156 39.568 344.54 39.568C344.085 39.568 343.674 39.6853 343.308 39.92C342.941 40.14 342.677 40.404 342.516 40.712C342.662 40.8733 342.765 41.0567 342.824 41.262C342.897 41.4527 342.934 41.6287 342.934 41.79C342.934 41.9513 342.89 42.1347 342.802 42.34C342.714 42.5453 342.567 42.7213 342.362 42.868C342.171 43.0147 341.907 43.088 341.57 43.088C341.159 43.0587 340.844 42.9047 340.624 42.626C340.404 42.3327 340.294 41.9953 340.294 41.614C340.294 41.2767 340.396 40.9173 340.602 40.536C340.807 40.1547 341.108 39.788 341.504 39.436C341.914 39.084 342.413 38.798 343 38.578C343.586 38.358 344.261 38.248 345.024 38.248C345.61 38.248 346.19 38.3213 346.762 38.468C347.334 38.6147 347.854 38.8493 348.324 39.172C348.793 39.48 349.167 39.898 349.446 40.426C349.724 40.9393 349.864 41.5773 349.864 42.34C349.864 42.7067 349.79 43.0953 349.644 43.506C349.512 43.9167 349.27 44.364 348.918 44.848C348.566 45.332 348.089 45.8747 347.488 46.476C346.886 47.0627 346.124 47.7373 345.2 48.5C344.32 49.2187 343.645 49.8787 343.176 50.48C342.721 51.0813 342.45 51.5653 342.362 51.932L346.542 52.042C346.996 52.0567 347.392 52.042 347.73 51.998C348.082 51.9393 348.353 51.8073 348.544 51.602C348.749 51.382 348.852 51.0447 348.852 50.59H350.018L349.864 54H340.25ZM358.969 59.962L357.407 58.95L369.859 37.346L371.685 38.512L358.969 59.962ZM384.357 54.352C383.051 54.352 382.01 54.0513 381.233 53.45C380.455 52.834 379.898 51.9687 379.561 50.854C379.223 49.7247 379.055 48.3973 379.055 46.872C379.055 46.344 379.106 45.7207 379.209 45.002C379.311 44.2687 379.487 43.5133 379.737 42.736C379.986 41.944 380.338 41.2107 380.793 40.536C381.247 39.8467 381.827 39.2967 382.531 38.886C383.235 38.4607 384.085 38.248 385.083 38.248C385.992 38.248 386.74 38.402 387.327 38.71C387.913 39.018 388.346 39.3993 388.625 39.854C388.903 40.294 389.043 40.7267 389.043 41.152C389.043 41.5187 388.94 41.8487 388.735 42.142C388.529 42.4207 388.221 42.56 387.811 42.56C387.327 42.5747 386.989 42.4427 386.799 42.164C386.608 41.8707 386.513 41.592 386.513 41.328C386.513 41.2107 386.535 41.064 386.579 40.888C386.623 40.6973 386.696 40.5287 386.799 40.382C386.696 40.1767 386.491 39.986 386.183 39.81C385.889 39.6193 385.523 39.5313 385.083 39.546C384.569 39.5607 384.129 39.7073 383.763 39.986C383.396 40.2647 383.095 40.6313 382.861 41.086C382.626 41.5407 382.435 42.0393 382.289 42.582C382.157 43.11 382.054 43.6453 381.981 44.188C381.922 44.7307 381.885 45.2293 381.871 45.684C382.061 45.4493 382.318 45.2293 382.641 45.024C382.963 44.804 383.33 44.628 383.741 44.496C384.151 44.3493 384.569 44.2687 384.995 44.254C385.831 44.2393 386.542 44.364 387.129 44.628C387.715 44.8773 388.192 45.2367 388.559 45.706C388.94 46.1753 389.219 46.718 389.395 47.334C389.571 47.95 389.659 48.6027 389.659 49.292C389.659 50.2013 389.431 51.0447 388.977 51.822C388.522 52.5847 387.891 53.2007 387.085 53.67C386.278 54.1247 385.369 54.352 384.357 54.352ZM384.445 53.032C385.017 53.032 385.464 52.8853 385.787 52.592C386.124 52.284 386.359 51.8807 386.491 51.382C386.637 50.8833 386.711 50.3627 386.711 49.82C386.711 49.4533 386.681 49.0427 386.623 48.588C386.579 48.1333 386.476 47.6933 386.315 47.268C386.168 46.828 385.941 46.4687 385.633 46.19C385.339 45.8967 384.936 45.75 384.423 45.75C384.071 45.75 383.726 45.838 383.389 46.014C383.051 46.1753 382.751 46.388 382.487 46.652C382.223 46.916 382.025 47.2093 381.893 47.532C381.907 48.104 381.959 48.7127 382.047 49.358C382.135 49.9887 382.274 50.5827 382.465 51.14C382.655 51.6973 382.912 52.152 383.235 52.504C383.557 52.856 383.961 53.032 384.445 53.032Z" fill="#6A6A6A"/>
<defs>
<clipPath id="clip0_168_708">
<rect width="16" height="16" fill="white" transform="translate(32 38)"/>
</clipPath>
</defs>
</svg>
