<svg width="411" height="92" viewBox="0 0 411 92" fill="none" xmlns="http://www.w3.org/2000/svg">
<rect x="20" y="26" width="40" height="40" rx="20" fill="#FE5A7D"/>
<g clip-path="url(#clip0_168_714)">
<path d="M43.3792 53.5998C43.2311 53.6007 43.0843 53.5718 42.9472 53.5146C42.81 53.4575 42.6853 53.3734 42.5802 53.267L35.8273 46.3806C35.6177 46.1655 35.5 45.8746 35.5 45.5714C35.5 45.2682 35.6177 44.9773 35.8273 44.7623L42.5802 37.8758C42.7955 37.6878 43.0724 37.5896 43.3557 37.6007C43.6389 37.6119 43.9076 37.7316 44.1081 37.936C44.3085 38.1404 44.4259 38.4144 44.4369 38.7033C44.4478 38.9921 44.3515 39.2746 44.1671 39.4941L38.2133 45.5657L44.1671 51.6372C44.3251 51.7971 44.4331 52.0011 44.4775 52.2235C44.5218 52.446 44.5004 52.6768 44.4161 52.8869C44.3318 53.097 44.1883 53.2768 44.0037 53.4037C43.8191 53.5306 43.6018 53.5989 43.3792 53.5998Z" fill="white"/>
</g>
<rect x="75" y="33" width="249" height="26" rx="10" fill="#FFDCE3"/>
<rect x="75" y="33" width="124.5" height="26" rx="10" fill="#FF9CB1"/>
<path d="M344.645 54.352C343.56 54.352 342.665 54.1907 341.961 53.868C341.272 53.5453 340.758 53.142 340.421 52.658C340.084 52.1593 339.915 51.6753 339.915 51.206C339.915 50.7953 340.032 50.4433 340.267 50.15C340.516 49.8567 340.846 49.7027 341.257 49.688C341.58 49.6733 341.836 49.7393 342.027 49.886C342.218 50.018 342.35 50.1867 342.423 50.392C342.511 50.5973 342.555 50.7807 342.555 50.942C342.555 51.0887 342.526 51.25 342.467 51.426C342.408 51.602 342.328 51.7633 342.225 51.91C342.386 52.262 342.68 52.526 343.105 52.702C343.53 52.878 343.978 52.966 344.447 52.966C345.415 52.966 346.156 52.6873 346.669 52.13C347.197 51.5727 347.461 50.8393 347.461 49.93C347.461 49.3727 347.358 48.8373 347.153 48.324C346.962 47.796 346.618 47.3633 346.119 47.026C345.62 46.674 344.909 46.5053 343.985 46.52C343.882 46.52 343.721 46.5273 343.501 46.542C343.281 46.5567 343.098 46.5713 342.951 46.586V45.2C343.083 45.2147 343.208 45.222 343.325 45.222C343.442 45.222 343.56 45.222 343.677 45.222C344.366 45.222 344.931 45.0827 345.371 44.804C345.826 44.5253 346.163 44.1733 346.383 43.748C346.618 43.308 346.742 42.8387 346.757 42.34C346.757 41.7973 346.684 41.3207 346.537 40.91C346.405 40.4847 346.17 40.1547 345.833 39.92C345.51 39.6853 345.07 39.568 344.513 39.568C344.029 39.568 343.596 39.6927 343.215 39.942C342.848 40.1767 342.606 40.4333 342.489 40.712C342.621 40.8587 342.709 41.0273 342.753 41.218C342.812 41.4087 342.841 41.5773 342.841 41.724C342.841 41.8853 342.797 42.0687 342.709 42.274C342.636 42.4647 342.496 42.6333 342.291 42.78C342.1 42.9267 341.844 42.9927 341.521 42.978C341.11 42.9633 340.795 42.8167 340.575 42.538C340.37 42.2593 340.267 41.9293 340.267 41.548C340.267 41.1227 340.436 40.6533 340.773 40.14C341.11 39.612 341.616 39.1647 342.291 38.798C342.98 38.4313 343.831 38.248 344.843 38.248C345.723 38.248 346.522 38.3727 347.241 38.622C347.96 38.8713 348.532 39.282 348.957 39.854C349.382 40.426 349.595 41.1813 349.595 42.12C349.595 42.5307 349.485 42.9707 349.265 43.44C349.045 43.9093 348.686 44.342 348.187 44.738C347.688 45.134 347.021 45.442 346.185 45.662C347.593 45.882 348.649 46.3733 349.353 47.136C350.072 47.884 350.431 48.764 350.431 49.776C350.431 50.7733 350.174 51.6167 349.661 52.306C349.148 52.9807 348.451 53.494 347.571 53.846C346.706 54.1833 345.73 54.352 344.645 54.352ZM359.237 59.962L357.675 58.95L370.127 37.346L371.953 38.512L359.237 59.962ZM384.625 54.352C383.32 54.352 382.278 54.0513 381.501 53.45C380.724 52.834 380.166 51.9687 379.829 50.854C379.492 49.7247 379.323 48.3973 379.323 46.872C379.323 46.344 379.374 45.7207 379.477 45.002C379.58 44.2687 379.756 43.5133 380.005 42.736C380.254 41.944 380.606 41.2107 381.061 40.536C381.516 39.8467 382.095 39.2967 382.799 38.886C383.503 38.4607 384.354 38.248 385.351 38.248C386.26 38.248 387.008 38.402 387.595 38.71C388.182 39.018 388.614 39.3993 388.893 39.854C389.172 40.294 389.311 40.7267 389.311 41.152C389.311 41.5187 389.208 41.8487 389.003 42.142C388.798 42.4207 388.49 42.56 388.079 42.56C387.595 42.5747 387.258 42.4427 387.067 42.164C386.876 41.8707 386.781 41.592 386.781 41.328C386.781 41.2107 386.803 41.064 386.847 40.888C386.891 40.6973 386.964 40.5287 387.067 40.382C386.964 40.1767 386.759 39.986 386.451 39.81C386.158 39.6193 385.791 39.5313 385.351 39.546C384.838 39.5607 384.398 39.7073 384.031 39.986C383.664 40.2647 383.364 40.6313 383.129 41.086C382.894 41.5407 382.704 42.0393 382.557 42.582C382.425 43.11 382.322 43.6453 382.249 44.188C382.19 44.7307 382.154 45.2293 382.139 45.684C382.33 45.4493 382.586 45.2293 382.909 45.024C383.232 44.804 383.598 44.628 384.009 44.496C384.42 44.3493 384.838 44.2687 385.263 44.254C386.099 44.2393 386.81 44.364 387.397 44.628C387.984 44.8773 388.46 45.2367 388.827 45.706C389.208 46.1753 389.487 46.718 389.663 47.334C389.839 47.95 389.927 48.6027 389.927 49.292C389.927 50.2013 389.7 51.0447 389.245 51.822C388.79 52.5847 388.16 53.2007 387.353 53.67C386.546 54.1247 385.637 54.352 384.625 54.352ZM384.713 53.032C385.285 53.032 385.732 52.8853 386.055 52.592C386.392 52.284 386.627 51.8807 386.759 51.382C386.906 50.8833 386.979 50.3627 386.979 49.82C386.979 49.4533 386.95 49.0427 386.891 48.588C386.847 48.1333 386.744 47.6933 386.583 47.268C386.436 46.828 386.209 46.4687 385.901 46.19C385.608 45.8967 385.204 45.75 384.691 45.75C384.339 45.75 383.994 45.838 383.657 46.014C383.32 46.1753 383.019 46.388 382.755 46.652C382.491 46.916 382.293 47.2093 382.161 47.532C382.176 48.104 382.227 48.7127 382.315 49.358C382.403 49.9887 382.542 50.5827 382.733 51.14C382.924 51.6973 383.18 52.152 383.503 52.504C383.826 52.856 384.229 53.032 384.713 53.032Z" fill="#6A6A6A"/>
<defs>
<clipPath id="clip0_168_714">
<rect width="16" height="16" fill="white" transform="translate(32 38)"/>
</clipPath>
</defs>
</svg>
