<svg width="411" height="92" viewBox="0 0 411 92" fill="none" xmlns="http://www.w3.org/2000/svg">
<rect x="20" y="26" width="40" height="40" rx="20" fill="#FE5A7D"/>
<g clip-path="url(#clip0_168_720)">
<path d="M43.3792 53.5998C43.2311 53.6007 43.0843 53.5718 42.9472 53.5146C42.81 53.4575 42.6853 53.3734 42.5802 53.267L35.8273 46.3806C35.6177 46.1655 35.5 45.8746 35.5 45.5714C35.5 45.2682 35.6177 44.9773 35.8273 44.7623L42.5802 37.8758C42.7955 37.6878 43.0724 37.5896 43.3557 37.6007C43.6389 37.6119 43.9076 37.7316 44.1081 37.936C44.3085 38.1404 44.4259 38.4144 44.4369 38.7033C44.4478 38.9921 44.3515 39.2746 44.1671 39.4941L38.2133 45.5657L44.1671 51.6372C44.3251 51.7971 44.4331 52.0011 44.4775 52.2235C44.5218 52.446 44.5004 52.6768 44.4161 52.8869C44.3318 53.097 44.1883 53.2768 44.0037 53.4037C43.8191 53.5306 43.6018 53.5989 43.3792 53.5998Z" fill="white"/>
</g>
<rect x="75" y="33" width="249" height="26" rx="10" fill="#FFDCE3"/>
<rect x="75" y="33" width="166" height="26" rx="10" fill="#FF9CB1"/>
<path d="M348.315 50.788C348.315 51.1547 348.308 51.5067 348.293 51.844C348.279 52.1667 348.257 52.4307 348.227 52.636C348.491 52.6067 348.785 52.592 349.107 52.592C349.445 52.5773 349.709 52.57 349.899 52.57V54H343.871V52.79H344.003C344.399 52.7753 344.715 52.7093 344.949 52.592C345.199 52.46 345.382 52.24 345.499 51.932C345.631 51.6093 345.697 51.162 345.697 50.59V49.93H339.493V48.192L347.171 38.248H348.315V48.17H350.493V49.93H348.315V50.788ZM345.675 42.362L341.341 48.082L345.697 48.126L345.719 42.362H345.675ZM359.087 59.962L357.525 58.95L369.977 37.346L371.803 38.512L359.087 59.962ZM384.475 54.352C383.169 54.352 382.128 54.0513 381.351 53.45C380.573 52.834 380.016 51.9687 379.679 50.854C379.341 49.7247 379.173 48.3973 379.173 46.872C379.173 46.344 379.224 45.7207 379.327 45.002C379.429 44.2687 379.605 43.5133 379.855 42.736C380.104 41.944 380.456 41.2107 380.911 40.536C381.365 39.8467 381.945 39.2967 382.649 38.886C383.353 38.4607 384.203 38.248 385.201 38.248C386.11 38.248 386.858 38.402 387.445 38.71C388.031 39.018 388.464 39.3993 388.743 39.854C389.021 40.294 389.161 40.7267 389.161 41.152C389.161 41.5187 389.058 41.8487 388.853 42.142C388.647 42.4207 388.339 42.56 387.929 42.56C387.445 42.5747 387.107 42.4427 386.917 42.164C386.726 41.8707 386.631 41.592 386.631 41.328C386.631 41.2107 386.653 41.064 386.697 40.888C386.741 40.6973 386.814 40.5287 386.917 40.382C386.814 40.1767 386.609 39.986 386.301 39.81C386.007 39.6193 385.641 39.5313 385.201 39.546C384.687 39.5607 384.247 39.7073 383.881 39.986C383.514 40.2647 383.213 40.6313 382.979 41.086C382.744 41.5407 382.553 42.0393 382.407 42.582C382.275 43.11 382.172 43.6453 382.099 44.188C382.04 44.7307 382.003 45.2293 381.989 45.684C382.179 45.4493 382.436 45.2293 382.759 45.024C383.081 44.804 383.448 44.628 383.859 44.496C384.269 44.3493 384.687 44.2687 385.113 44.254C385.949 44.2393 386.66 44.364 387.247 44.628C387.833 44.8773 388.31 45.2367 388.677 45.706C389.058 46.1753 389.337 46.718 389.513 47.334C389.689 47.95 389.777 48.6027 389.777 49.292C389.777 50.2013 389.549 51.0447 389.095 51.822C388.64 52.5847 388.009 53.2007 387.203 53.67C386.396 54.1247 385.487 54.352 384.475 54.352ZM384.563 53.032C385.135 53.032 385.582 52.8853 385.905 52.592C386.242 52.284 386.477 51.8807 386.609 51.382C386.755 50.8833 386.829 50.3627 386.829 49.82C386.829 49.4533 386.799 49.0427 386.741 48.588C386.697 48.1333 386.594 47.6933 386.433 47.268C386.286 46.828 386.059 46.4687 385.751 46.19C385.457 45.8967 385.054 45.75 384.541 45.75C384.189 45.75 383.844 45.838 383.507 46.014C383.169 46.1753 382.869 46.388 382.605 46.652C382.341 46.916 382.143 47.2093 382.011 47.532C382.025 48.104 382.077 48.7127 382.165 49.358C382.253 49.9887 382.392 50.5827 382.583 51.14C382.773 51.6973 383.03 52.152 383.353 52.504C383.675 52.856 384.079 53.032 384.563 53.032Z" fill="#6A6A6A"/>
<defs>
<clipPath id="clip0_168_720">
<rect width="16" height="16" fill="white" transform="translate(32 38)"/>
</clipPath>
</defs>
</svg>
