<svg width="411" height="92" viewBox="0 0 411 92" fill="none" xmlns="http://www.w3.org/2000/svg">
<rect x="20" y="26" width="40" height="40" rx="20" fill="#FE5A7D"/>
<g clip-path="url(#clip0_168_702)">
<path d="M43.3792 53.5998C43.2311 53.6007 43.0843 53.5718 42.9472 53.5146C42.81 53.4575 42.6853 53.3734 42.5802 53.267L35.8273 46.3806C35.6177 46.1655 35.5 45.8746 35.5 45.5714C35.5 45.2682 35.6177 44.9773 35.8273 44.7623L42.5802 37.8758C42.7955 37.6878 43.0724 37.5896 43.3557 37.6007C43.6389 37.6119 43.9076 37.7316 44.1081 37.936C44.3085 38.1404 44.4259 38.4144 44.4369 38.7033C44.4478 38.9921 44.3515 39.2746 44.1671 39.4941L38.2133 45.5657L44.1671 51.6372C44.3251 51.7971 44.4331 52.0011 44.4775 52.2235C44.5218 52.446 44.5004 52.6768 44.4161 52.8869C44.3318 53.097 44.1883 53.2768 44.0037 53.4037C43.8191 53.5306 43.6018 53.5989 43.3792 53.5998Z" fill="white"/>
</g>
<rect x="75" y="33" width="252" height="26" rx="10" fill="#FFDCE3"/>
<rect x="75" y="33" width="41.5" height="26" rx="10" fill="#FF9CB1"/>
<path d="M344.132 54V52.79C344.528 52.7753 344.843 52.7093 345.078 52.592C345.327 52.4747 345.511 52.2693 345.628 51.976C345.745 51.668 345.804 51.2353 345.804 50.678L345.782 41.328L343.318 42.846L342.636 41.768L347.432 38.248H348.554V50.788C348.554 51.1547 348.547 51.5067 348.532 51.844C348.532 52.1667 348.517 52.4233 348.488 52.614C348.752 52.5993 349.053 52.5847 349.39 52.57C349.742 52.5553 350.013 52.548 350.204 52.548V54H344.132ZM358.901 59.962L357.339 58.95L369.791 37.346L371.617 38.512L358.901 59.962ZM384.288 54.352C382.983 54.352 381.942 54.0513 381.164 53.45C380.387 52.834 379.83 51.9687 379.492 50.854C379.155 49.7247 378.986 48.3973 378.986 46.872C378.986 46.344 379.038 45.7207 379.14 45.002C379.243 44.2687 379.419 43.5133 379.668 42.736C379.918 41.944 380.27 41.2107 380.724 40.536C381.179 39.8467 381.758 39.2967 382.462 38.886C383.166 38.4607 384.017 38.248 385.014 38.248C385.924 38.248 386.672 38.402 387.258 38.71C387.845 39.018 388.278 39.3993 388.556 39.854C388.835 40.294 388.974 40.7267 388.974 41.152C388.974 41.5187 388.872 41.8487 388.666 42.142C388.461 42.4207 388.153 42.56 387.742 42.56C387.258 42.5747 386.921 42.4427 386.73 42.164C386.54 41.8707 386.444 41.592 386.444 41.328C386.444 41.2107 386.466 41.064 386.51 40.888C386.554 40.6973 386.628 40.5287 386.73 40.382C386.628 40.1767 386.422 39.986 386.114 39.81C385.821 39.6193 385.454 39.5313 385.014 39.546C384.501 39.5607 384.061 39.7073 383.694 39.986C383.328 40.2647 383.027 40.6313 382.792 41.086C382.558 41.5407 382.367 42.0393 382.22 42.582C382.088 43.11 381.986 43.6453 381.912 44.188C381.854 44.7307 381.817 45.2293 381.802 45.684C381.993 45.4493 382.25 45.2293 382.572 45.024C382.895 44.804 383.262 44.628 383.672 44.496C384.083 44.3493 384.501 44.2687 384.926 44.254C385.762 44.2393 386.474 44.364 387.06 44.628C387.647 44.8773 388.124 45.2367 388.49 45.706C388.872 46.1753 389.15 46.718 389.326 47.334C389.502 47.95 389.59 48.6027 389.59 49.292C389.59 50.2013 389.363 51.0447 388.908 51.822C388.454 52.5847 387.823 53.2007 387.016 53.67C386.21 54.1247 385.3 54.352 384.288 54.352ZM384.376 53.032C384.948 53.032 385.396 52.8853 385.718 52.592C386.056 52.284 386.29 51.8807 386.422 51.382C386.569 50.8833 386.642 50.3627 386.642 49.82C386.642 49.4533 386.613 49.0427 386.554 48.588C386.51 48.1333 386.408 47.6933 386.246 47.268C386.1 46.828 385.872 46.4687 385.564 46.19C385.271 45.8967 384.868 45.75 384.354 45.75C384.002 45.75 383.658 45.838 383.32 46.014C382.983 46.1753 382.682 46.388 382.418 46.652C382.154 46.916 381.956 47.2093 381.824 47.532C381.839 48.104 381.89 48.7127 381.978 49.358C382.066 49.9887 382.206 50.5827 382.396 51.14C382.587 51.6973 382.844 52.152 383.166 52.504C383.489 52.856 383.892 53.032 384.376 53.032Z" fill="#6A6A6A"/>
<defs>
<clipPath id="clip0_168_702">
<rect width="16" height="16" fill="white" transform="translate(32 38)"/>
</clipPath>
</defs>
</svg>
