<svg width="411" height="92" viewBox="0 0 411 92" fill="none" xmlns="http://www.w3.org/2000/svg">
<rect x="20" y="26" width="40" height="40" rx="20" fill="#FE5A7D"/>
<g clip-path="url(#clip0_168_732)">
<path d="M43.3792 53.5998C43.2311 53.6007 43.0843 53.5718 42.9472 53.5146C42.81 53.4575 42.6853 53.3734 42.5802 53.267L35.8273 46.3806C35.6177 46.1655 35.5 45.8746 35.5 45.5714C35.5 45.2682 35.6177 44.9773 35.8273 44.7623L42.5802 37.8758C42.7955 37.6878 43.0724 37.5896 43.3557 37.6007C43.6389 37.6119 43.9076 37.7316 44.1081 37.936C44.3085 38.1404 44.4259 38.4144 44.4369 38.7033C44.4478 38.9921 44.3515 39.2746 44.1671 39.4941L38.2133 45.5657L44.1671 51.6372C44.3251 51.7971 44.4331 52.0011 44.4775 52.2235C44.5218 52.446 44.5004 52.6768 44.4161 52.8869C44.3318 53.097 44.1883 53.2768 44.0037 53.4037C43.8191 53.5306 43.6018 53.5989 43.3792 53.5998Z" fill="white"/>
</g>
<rect x="75" y="33" width="248" height="26" rx="10" fill="#FCE4EC"/>
<rect x="75" y="33" width="248" height="26" rx="10" fill="#FF9CB1"/>
<path d="M344.766 54.352C343.46 54.352 342.419 54.0513 341.642 53.45C340.864 52.834 340.307 51.9687 339.97 50.854C339.632 49.7247 339.464 48.3973 339.464 46.872C339.464 46.344 339.515 45.7207 339.618 45.002C339.72 44.2687 339.896 43.5133 340.146 42.736C340.395 41.944 340.747 41.2107 341.202 40.536C341.656 39.8467 342.236 39.2967 342.94 38.886C343.644 38.4607 344.494 38.248 345.492 38.248C346.401 38.248 347.149 38.402 347.736 38.71C348.322 39.018 348.755 39.3993 349.034 39.854C349.312 40.294 349.452 40.7267 349.452 41.152C349.452 41.5187 349.349 41.8487 349.144 42.142C348.938 42.4207 348.63 42.56 348.22 42.56C347.736 42.5747 347.398 42.4427 347.208 42.164C347.017 41.8707 346.922 41.592 346.922 41.328C346.922 41.2107 346.944 41.064 346.988 40.888C347.032 40.6973 347.105 40.5287 347.208 40.382C347.105 40.1767 346.9 39.986 346.592 39.81C346.298 39.6193 345.932 39.5313 345.492 39.546C344.978 39.5607 344.538 39.7073 344.172 39.986C343.805 40.2647 343.504 40.6313 343.27 41.086C343.035 41.5407 342.844 42.0393 342.698 42.582C342.566 43.11 342.463 43.6453 342.39 44.188C342.331 44.7307 342.294 45.2293 342.28 45.684C342.47 45.4493 342.727 45.2293 343.05 45.024C343.372 44.804 343.739 44.628 344.15 44.496C344.56 44.3493 344.978 44.2687 345.404 44.254C346.24 44.2393 346.951 44.364 347.538 44.628C348.124 44.8773 348.601 45.2367 348.968 45.706C349.349 46.1753 349.628 46.718 349.804 47.334C349.98 47.95 350.068 48.6027 350.068 49.292C350.068 50.2013 349.84 51.0447 349.386 51.822C348.931 52.5847 348.3 53.2007 347.494 53.67C346.687 54.1247 345.778 54.352 344.766 54.352ZM344.854 53.032C345.426 53.032 345.873 52.8853 346.196 52.592C346.533 52.284 346.768 51.8807 346.9 51.382C347.046 50.8833 347.12 50.3627 347.12 49.82C347.12 49.4533 347.09 49.0427 347.032 48.588C346.988 48.1333 346.885 47.6933 346.724 47.268C346.577 46.828 346.35 46.4687 346.042 46.19C345.748 45.8967 345.345 45.75 344.832 45.75C344.48 45.75 344.135 45.838 343.798 46.014C343.46 46.1753 343.16 46.388 342.896 46.652C342.632 46.916 342.434 47.2093 342.302 47.532C342.316 48.104 342.368 48.7127 342.456 49.358C342.544 49.9887 342.683 50.5827 342.874 51.14C343.064 51.6973 343.321 52.152 343.644 52.504C343.966 52.856 344.37 53.032 344.854 53.032ZM358.931 59.962L357.369 58.95L369.821 37.346L371.647 38.512L358.931 59.962ZM384.318 54.352C383.013 54.352 381.972 54.0513 381.194 53.45C380.417 52.834 379.86 51.9687 379.522 50.854C379.185 49.7247 379.016 48.3973 379.016 46.872C379.016 46.344 379.068 45.7207 379.17 45.002C379.273 44.2687 379.449 43.5133 379.698 42.736C379.948 41.944 380.3 41.2107 380.754 40.536C381.209 39.8467 381.788 39.2967 382.492 38.886C383.196 38.4607 384.047 38.248 385.044 38.248C385.954 38.248 386.702 38.402 387.288 38.71C387.875 39.018 388.308 39.3993 388.586 39.854C388.865 40.294 389.004 40.7267 389.004 41.152C389.004 41.5187 388.902 41.8487 388.696 42.142C388.491 42.4207 388.183 42.56 387.772 42.56C387.288 42.5747 386.951 42.4427 386.76 42.164C386.57 41.8707 386.474 41.592 386.474 41.328C386.474 41.2107 386.496 41.064 386.54 40.888C386.584 40.6973 386.658 40.5287 386.76 40.382C386.658 40.1767 386.452 39.986 386.144 39.81C385.851 39.6193 385.484 39.5313 385.044 39.546C384.531 39.5607 384.091 39.7073 383.724 39.986C383.358 40.2647 383.057 40.6313 382.822 41.086C382.588 41.5407 382.397 42.0393 382.25 42.582C382.118 43.11 382.016 43.6453 381.942 44.188C381.884 44.7307 381.847 45.2293 381.832 45.684C382.023 45.4493 382.28 45.2293 382.602 45.024C382.925 44.804 383.292 44.628 383.702 44.496C384.113 44.3493 384.531 44.2687 384.956 44.254C385.792 44.2393 386.504 44.364 387.09 44.628C387.677 44.8773 388.154 45.2367 388.52 45.706C388.902 46.1753 389.18 46.718 389.356 47.334C389.532 47.95 389.62 48.6027 389.62 49.292C389.62 50.2013 389.393 51.0447 388.938 51.822C388.484 52.5847 387.853 53.2007 387.046 53.67C386.24 54.1247 385.33 54.352 384.318 54.352ZM384.406 53.032C384.978 53.032 385.426 52.8853 385.748 52.592C386.086 52.284 386.32 51.8807 386.452 51.382C386.599 50.8833 386.672 50.3627 386.672 49.82C386.672 49.4533 386.643 49.0427 386.584 48.588C386.54 48.1333 386.438 47.6933 386.276 47.268C386.13 46.828 385.902 46.4687 385.594 46.19C385.301 45.8967 384.898 45.75 384.384 45.75C384.032 45.75 383.688 45.838 383.35 46.014C383.013 46.1753 382.712 46.388 382.448 46.652C382.184 46.916 381.986 47.2093 381.854 47.532C381.869 48.104 381.92 48.7127 382.008 49.358C382.096 49.9887 382.236 50.5827 382.426 51.14C382.617 51.6973 382.874 52.152 383.196 52.504C383.519 52.856 383.922 53.032 384.406 53.032Z" fill="#6A6A6A"/>
<defs>
<clipPath id="clip0_168_732">
<rect width="16" height="16" fill="white" transform="translate(32 38)"/>
</clipPath>
</defs>
</svg>
