<svg width="411" height="92" viewBox="0 0 411 92" fill="none" xmlns="http://www.w3.org/2000/svg">
<rect x="20" y="26" width="40" height="40" rx="20" fill="#FE5A7D"/>
<g clip-path="url(#clip0_168_726)">
<path d="M43.3792 53.5998C43.2311 53.6007 43.0843 53.5718 42.9472 53.5146C42.81 53.4575 42.6853 53.3734 42.5802 53.267L35.8273 46.3806C35.6177 46.1655 35.5 45.8746 35.5 45.5714C35.5 45.2682 35.6177 44.9773 35.8273 44.7623L42.5802 37.8758C42.7955 37.6878 43.0724 37.5896 43.3557 37.6007C43.6389 37.6119 43.9076 37.7316 44.1081 37.936C44.3085 38.1404 44.4259 38.4144 44.4369 38.7033C44.4478 38.9921 44.3515 39.2746 44.1671 39.4941L38.2133 45.5657L44.1671 51.6372C44.3251 51.7971 44.4331 52.0011 44.4775 52.2235C44.5218 52.446 44.5004 52.6768 44.4161 52.8869C44.3318 53.097 44.1883 53.2768 44.0037 53.4037C43.8191 53.5306 43.6018 53.5989 43.3792 53.5998Z" fill="white"/>
</g>
<rect x="75" y="33" width="249" height="26" rx="10" fill="#FFDCE3"/>
<rect x="75" y="33" width="207.5" height="26" rx="10" fill="#FF9CB1"/>
<path d="M344.784 54.352C343.845 54.352 343.038 54.198 342.364 53.89C341.689 53.582 341.176 53.1933 340.824 52.724C340.472 52.2547 340.296 51.7927 340.296 51.338C340.296 50.942 340.413 50.5973 340.648 50.304C340.882 49.996 341.205 49.8347 341.616 49.82C341.938 49.8053 342.195 49.8713 342.386 50.018C342.576 50.15 342.708 50.3187 342.782 50.524C342.87 50.7293 342.914 50.92 342.914 51.096C342.914 51.228 342.892 51.3747 342.848 51.536C342.804 51.6973 342.745 51.844 342.672 51.976C342.73 52.2107 342.877 52.4087 343.112 52.57C343.346 52.7167 343.61 52.834 343.904 52.922C344.197 52.9953 344.468 53.032 344.718 53.032C345.348 53.0173 345.854 52.8487 346.236 52.526C346.632 52.2033 346.918 51.7853 347.094 51.272C347.27 50.7587 347.358 50.238 347.358 49.71C347.358 49.3433 347.328 48.94 347.27 48.5C347.226 48.0453 347.108 47.6053 346.918 47.18C346.727 46.7547 346.434 46.41 346.038 46.146C345.656 45.8673 345.128 45.728 344.454 45.728C344.234 45.728 343.97 45.7573 343.662 45.816C343.368 45.86 343.046 45.9407 342.694 46.058C342.356 46.1753 342.034 46.3293 341.726 46.52L340.89 45.838L340.824 38.6H346.522C347.138 38.6 347.6 38.5047 347.908 38.314C348.216 38.1233 348.37 37.742 348.37 37.17H349.492L349.338 40.514L342.298 40.646V44.87C342.635 44.7233 343.06 44.5987 343.574 44.496C344.102 44.3787 344.622 44.32 345.136 44.32C346.045 44.32 346.83 44.4593 347.49 44.738C348.15 45.002 348.692 45.3687 349.118 45.838C349.543 46.3073 349.858 46.8353 350.064 47.422C350.269 48.0087 350.372 48.6247 350.372 49.27C350.372 50.3847 350.1 51.3233 349.558 52.086C349.03 52.834 348.34 53.3987 347.49 53.78C346.639 54.1613 345.737 54.352 344.784 54.352ZM359.055 59.962L357.493 58.95L369.945 37.346L371.771 38.512L359.055 59.962ZM384.443 54.352C383.137 54.352 382.096 54.0513 381.319 53.45C380.541 52.834 379.984 51.9687 379.647 50.854C379.309 49.7247 379.141 48.3973 379.141 46.872C379.141 46.344 379.192 45.7207 379.295 45.002C379.397 44.2687 379.573 43.5133 379.823 42.736C380.072 41.944 380.424 41.2107 380.879 40.536C381.333 39.8467 381.913 39.2967 382.617 38.886C383.321 38.4607 384.171 38.248 385.169 38.248C386.078 38.248 386.826 38.402 387.413 38.71C387.999 39.018 388.432 39.3993 388.711 39.854C388.989 40.294 389.129 40.7267 389.129 41.152C389.129 41.5187 389.026 41.8487 388.821 42.142C388.615 42.4207 388.307 42.56 387.897 42.56C387.413 42.5747 387.075 42.4427 386.885 42.164C386.694 41.8707 386.599 41.592 386.599 41.328C386.599 41.2107 386.621 41.064 386.665 40.888C386.709 40.6973 386.782 40.5287 386.885 40.382C386.782 40.1767 386.577 39.986 386.269 39.81C385.975 39.6193 385.609 39.5313 385.169 39.546C384.655 39.5607 384.215 39.7073 383.849 39.986C383.482 40.2647 383.181 40.6313 382.947 41.086C382.712 41.5407 382.521 42.0393 382.375 42.582C382.243 43.11 382.14 43.6453 382.067 44.188C382.008 44.7307 381.971 45.2293 381.957 45.684C382.147 45.4493 382.404 45.2293 382.727 45.024C383.049 44.804 383.416 44.628 383.827 44.496C384.237 44.3493 384.655 44.2687 385.081 44.254C385.917 44.2393 386.628 44.364 387.215 44.628C387.801 44.8773 388.278 45.2367 388.645 45.706C389.026 46.1753 389.305 46.718 389.481 47.334C389.657 47.95 389.745 48.6027 389.745 49.292C389.745 50.2013 389.517 51.0447 389.062 51.822C388.608 52.5847 387.977 53.2007 387.171 53.67C386.364 54.1247 385.455 54.352 384.443 54.352ZM384.53 53.032C385.103 53.032 385.55 52.8853 385.873 52.592C386.21 52.284 386.445 51.8807 386.577 51.382C386.723 50.8833 386.797 50.3627 386.797 49.82C386.797 49.4533 386.767 49.0427 386.709 48.588C386.665 48.1333 386.562 47.6933 386.401 47.268C386.254 46.828 386.027 46.4687 385.719 46.19C385.425 45.8967 385.022 45.75 384.509 45.75C384.157 45.75 383.812 45.838 383.475 46.014C383.137 46.1753 382.837 46.388 382.573 46.652C382.309 46.916 382.111 47.2093 381.979 47.532C381.993 48.104 382.045 48.7127 382.133 49.358C382.221 49.9887 382.36 50.5827 382.551 51.14C382.741 51.6973 382.998 52.152 383.321 52.504C383.643 52.856 384.047 53.032 384.53 53.032Z" fill="#6A6A6A"/>
<defs>
<clipPath id="clip0_168_726">
<rect width="16" height="16" fill="white" transform="translate(32 38)"/>
</clipPath>
</defs>
</svg>
